<?xml version="1.0" encoding="UTF-8"?><svg viewBox="0 0 2000 2000" xmlns="http://www.w3.org/2000/svg" xmlns:xlink="http://www.w3.org/1999/xlink"><style>:root>svg{display:none}:root>svg:target{display:block}</style><svg viewBox="0 0 2666 3290" id="main-btm-bg" xmlns="http://www.w3.org/2000/svg"><defs><linearGradient x1="69.696%" y1="0%" x2="2.449%" y2="70.711%" id="aa"><stop stop-color="#F1B337" offset="0%"/><stop stop-color="#7C90F6" offset="99%"/></linearGradient></defs><path d="M2630.29 89.031c-168.7-264.932-301.637 358.129-968.625 0-228.361-122.616-352.377 56.379-566.375-63.114C869.384-100.226 4.594 267.646 4.594 415.025c0 46.352-9.1 2874.214 0 2874.214 1774.937.507 2662.073.507 2661.406 0-.689-.525-4.293-2324.31-4.293-3148.045 0-28.22-18.757-32.282-31.416-52.163z" fill="url(#aa)" fill-rule="evenodd" opacity=".2"/></svg><svg viewBox="0 0 2015 1971" id="main-top-bg" xmlns="http://www.w3.org/2000/svg"><defs><linearGradient x1="70.711%" y1="-56.926%" x2="0%" y2="94.291%" id="ba"><stop stop-color="#F1B337" offset="0%"/><stop stop-color="#7C90F6" offset="99%"/></linearGradient></defs><path d="M1999.722 119.557s35.329 1798.87 0 1799.086c-140.874.865-394.189-331.973-944.678-45.646-235.74 122.618-363.765-66.38-584.68 53.115-233.206 126.144-473.531-59.018-469.362-53.115V.002l1998.72 119.555z" transform="translate(-1)" fill="url(#ba)" fill-rule="evenodd" opacity=".2"/></svg></svg>