<?xml version="1.0" encoding="utf-8"?><!DOCTYPE svg  PUBLIC '-//W3C//DTD SVG 1.0//EN'  'http://www.w3.org/TR/2001/REC-SVG-20010904/DTD/svg10.dtd'><svg viewBox="0 0 2000 592.8" xmlns="http://www.w3.org/2000/svg" xmlns:xlink="http://www.w3.org/1999/xlink"><style>:root>svg{display:none}:root>svg:target{display:block}</style><svg viewBox="0 0 539.856 160" id="download-appstore" xmlns="http://www.w3.org/2000/svg"><g transform="scale(4.00216 4.0011)"><path fill="#FFF" d="M134.032 35.268a3.83 3.83 0 0 1-3.834 3.83H4.729a3.835 3.835 0 0 1-3.839-3.83V4.725A3.84 3.84 0 0 1 4.729.89h125.468a3.834 3.834 0 0 1 3.834 3.835l.001 30.543z"/><path fill="#A6A6A6" d="M130.198 39.989H4.729A4.73 4.73 0 0 1 0 35.268V4.726A4.733 4.733 0 0 1 4.729 0h125.468a4.735 4.735 0 0 1 4.729 4.726v30.542c.002 2.604-2.123 4.721-4.728 4.721z"/><path d="M134.032 35.268a3.83 3.83 0 0 1-3.834 3.83H4.729a3.835 3.835 0 0 1-3.839-3.83V4.725A3.84 3.84 0 0 1 4.729.89h125.468a3.834 3.834 0 0 1 3.834 3.835l.001 30.543z"/><path fill="#FFF" d="M30.128 19.784c-.029-3.223 2.639-4.791 2.761-4.864-1.511-2.203-3.853-2.504-4.676-2.528-1.967-.207-3.875 1.177-4.877 1.177-1.022 0-2.565-1.157-4.228-1.123-2.14.033-4.142 1.272-5.24 3.196-2.266 3.923-.576 9.688 1.595 12.859 1.086 1.554 2.355 3.287 4.016 3.226 1.625-.066 2.232-1.035 4.193-1.035 1.943 0 2.513 1.035 4.207.996 1.744-.027 2.842-1.56 3.89-3.127 1.255-1.779 1.759-3.533 1.779-3.623-.04-.014-3.386-1.292-3.42-5.154zm-3.2-9.478c.874-1.093 1.472-2.58 1.306-4.089-1.265.056-2.847.875-3.758 1.944-.806.942-1.526 2.486-1.34 3.938 1.421.106 2.88-.717 3.792-1.793z"/><linearGradient id="aa" gradientUnits="userSpaceOnUse" x1="-23.235" y1="97.431" x2="-23.235" y2="61.386" gradientTransform="matrix(4.0022 0 0 4.0011 191.95 -349.736)"><stop offset="0" stop-color="#1a1a1a" stop-opacity=".1"/><stop offset=".123" stop-color="#212121" stop-opacity=".151"/><stop offset=".308" stop-color="#353535" stop-opacity=".227"/><stop offset=".532" stop-color="#575757" stop-opacity=".318"/><stop offset=".783" stop-color="#858585" stop-opacity=".421"/><stop offset="1" stop-color="#b3b3b3" stop-opacity=".51"/></linearGradient><path fill="url(#aa)" d="M130.198 0H62.993l26.323 39.989h40.882a4.733 4.733 0 0 0 4.729-4.724V4.726A4.734 4.734 0 0 0 130.198 0z"/><path d="M53.665 31.504h-2.271l-1.244-3.909h-4.324l-1.185 3.909H42.43l4.285-13.308h2.646l4.304 13.308zm-3.89-5.549L48.65 22.48c-.119-.355-.343-1.191-.671-2.507h-.04c-.132.566-.343 1.402-.632 2.507l-1.106 3.475h3.574zm14.888.633c0 1.632-.443 2.922-1.33 3.869-.794.843-1.781 1.264-2.958 1.264-1.271 0-2.185-.453-2.74-1.361v5.035h-2.132V25.062c0-1.025-.027-2.076-.079-3.154h1.875l.119 1.521h.04c.711-1.146 1.79-1.719 3.238-1.719 1.132 0 2.077.447 2.833 1.342.755.897 1.134 2.075 1.134 3.536zm-2.172.078c0-.934-.21-1.704-.632-2.311-.461-.631-1.08-.947-1.856-.947-.526 0-1.004.176-1.431.523-.428.35-.708.807-.839 1.373a2.784 2.784 0 0 0-.099.649v1.601c0 .697.214 1.286.642 1.768.428.48.984.721 1.668.721.803 0 1.428-.311 1.875-.928.448-.619.672-1.435.672-2.449zm13.209-.078c0 1.632-.443 2.922-1.33 3.869-.795.843-1.781 1.264-2.959 1.264-1.271 0-2.185-.453-2.74-1.361v5.035h-2.132V25.062c0-1.025-.027-2.076-.079-3.154h1.875l.119 1.521h.04c.71-1.146 1.789-1.719 3.238-1.719 1.131 0 2.076.447 2.834 1.342.754.897 1.134 2.075 1.134 3.536zm-2.173.078c0-.934-.211-1.704-.633-2.311-.461-.631-1.078-.947-1.854-.947-.526 0-1.004.176-1.433.523-.428.35-.707.807-.838 1.373-.065.264-.1.479-.1.649v1.601c0 .697.215 1.286.641 1.768.428.479.984.721 1.67.721.804 0 1.429-.311 1.875-.928.448-.619.672-1.435.672-2.449zm14.513 1.105c0 1.133-.396 2.054-1.183 2.765-.866.776-2.075 1.165-3.625 1.165-1.432 0-2.58-.276-3.446-.829l.493-1.777c.935.554 1.962.83 3.08.83.804 0 1.429-.182 1.875-.543.447-.362.673-.846.673-1.45 0-.541-.187-.994-.554-1.363-.369-.368-.979-.711-1.836-1.026-2.33-.869-3.496-2.14-3.496-3.812 0-1.092.412-1.986 1.234-2.685.822-.698 1.912-1.047 3.268-1.047 1.211 0 2.22.211 3.021.632l-.535 1.738c-.754-.408-1.605-.612-2.557-.612-.752 0-1.342.185-1.764.553-.355.329-.535.73-.535 1.206 0 .525.205.961.613 1.303.354.315 1 .658 1.934 1.026 1.146.462 1.988 1 2.527 1.618.543.618.813 1.389.813 2.308zm7.067-4.263h-2.35v4.659c0 1.185.414 1.776 1.244 1.776.381 0 .697-.032.947-.099l.059 1.619c-.42.157-.973.236-1.658.236-.842 0-1.5-.257-1.975-.771-.473-.514-.711-1.375-.711-2.587v-4.837h-1.4v-1.6h1.4v-1.757l2.094-.632v2.389h2.35v1.604zm10.582 3.119c0 1.475-.422 2.686-1.264 3.633-.881.975-2.053 1.461-3.514 1.461-1.41 0-2.531-.467-3.367-1.4-.836-.935-1.254-2.113-1.254-3.534 0-1.487.432-2.705 1.293-3.652.863-.948 2.025-1.422 3.486-1.422 1.408 0 2.539.468 3.395 1.402.818.906 1.225 2.076 1.225 3.512zm-2.21.049c0-.879-.19-1.633-.571-2.264-.447-.762-1.087-1.143-1.916-1.143-.854 0-1.509.381-1.955 1.143-.382.631-.572 1.398-.572 2.304 0 .88.19 1.636.572 2.265.461.762 1.104 1.143 1.937 1.143.815 0 1.454-.389 1.916-1.162.392-.646.589-1.405.589-2.286zm9.143-2.893a3.71 3.71 0 0 0-.672-.059c-.75 0-1.33.282-1.738.85-.354.5-.532 1.132-.532 1.895v5.035h-2.132V24.93a67.43 67.43 0 0 0-.062-3.021h1.857l.078 1.836h.059c.226-.631.58-1.14 1.066-1.521a2.578 2.578 0 0 1 1.541-.514c.197 0 .375.014.533.039l.002 2.034zm9.535 2.469a5 5 0 0 1-.078.967h-6.396c.024.948.334 1.674.928 2.174.539.446 1.236.67 2.092.67.947 0 1.811-.15 2.588-.453l.334 1.479c-.908.396-1.98.593-3.217.593-1.488 0-2.656-.438-3.506-1.312-.848-.875-1.273-2.051-1.273-3.524 0-1.446.395-2.651 1.186-3.612.828-1.026 1.947-1.539 3.355-1.539 1.383 0 2.43.513 3.141 1.539.563.813.846 1.821.846 3.018zm-2.033-.553c.015-.633-.125-1.178-.414-1.639-.369-.594-.937-.89-1.698-.89-.697 0-1.265.289-1.697.869-.355.461-.566 1.015-.631 1.658l4.44.002zM45.211 13.491c-.593 0-1.106-.029-1.533-.078V6.979a11.606 11.606 0 0 1 1.805-.136c2.445 0 3.571 1.203 3.571 3.164 0 2.262-1.33 3.484-3.843 3.484zm.358-5.823c-.33 0-.611.02-.844.068v4.891c.126.02.368.029.708.029 1.602 0 2.514-.912 2.514-2.62 0-1.523-.825-2.368-2.378-2.368zm6.994 5.872c-1.378 0-2.271-1.029-2.271-2.426 0-1.456.912-2.494 2.349-2.494 1.358 0 2.271.98 2.271 2.417 0 1.474-.941 2.503-2.349 2.503zm.04-4.154c-.757 0-1.242.708-1.242 1.698 0 .971.495 1.679 1.232 1.679s1.232-.757 1.232-1.699c0-.96-.485-1.678-1.222-1.678zm10.167-.669l-1.475 4.716h-.961l-.611-2.048a15.53 15.53 0 0 1-.379-1.523h-.02c-.077.514-.223 1.029-.378 1.523l-.65 2.048h-.971l-1.388-4.716h1.077l.534 2.242c.126.534.232 1.038.32 1.514h.02c.077-.397.203-.893.388-1.504l.67-2.251h.854l.641 2.203c.155.534.281 1.058.379 1.553h.028c.068-.485.175-1 .32-1.553l.573-2.203 1.029-.001zm5.43 4.716h-1.048v-2.708c0-.834-.32-1.252-.951-1.252-.621 0-1.048.534-1.048 1.155v2.805h-1.048v-3.368c0-.417-.01-.864-.039-1.349h.922l.049.728h.029c.282-.504.854-.824 1.495-.824.99 0 1.64.757 1.64 1.989l-.001 2.824zm2.89 0h-1.049v-6.88h1.049v6.88zm3.821.107c-1.377 0-2.271-1.029-2.271-2.426 0-1.456.912-2.494 2.348-2.494 1.359 0 2.271.98 2.271 2.417.001 1.474-.941 2.503-2.348 2.503zm.039-4.154c-.757 0-1.242.708-1.242 1.698 0 .971.496 1.679 1.231 1.679.738 0 1.232-.757 1.232-1.699.001-.96-.483-1.678-1.221-1.678zm6.441 4.047l-.076-.543h-.028c-.32.437-.787.65-1.379.65-.845 0-1.445-.592-1.445-1.388 0-1.164 1.009-1.766 2.756-1.766v-.087c0-.621-.329-.932-.979-.932-.465 0-.873.117-1.232.35l-.213-.689c.436-.272.98-.408 1.619-.408 1.232 0 1.854.65 1.854 1.951v1.737c0 .476.021.845.068 1.126l-.945-.001zm-.144-2.349c-1.164 0-1.748.282-1.748.951 0 .495.301.737.719.737.533 0 1.029-.407 1.029-.96v-.728zm6.11 2.349l-.049-.757h-.029c-.301.572-.807.864-1.514.864-1.137 0-1.979-1-1.979-2.407 0-1.475.873-2.514 2.065-2.514.631 0 1.078.213 1.33.641h.021V6.553h1.049v5.609c0 .456.011.883.039 1.271h-.933zm-.155-2.775c0-.66-.437-1.223-1.104-1.223-.777 0-1.252.689-1.252 1.659 0 .951.493 1.602 1.231 1.602.659 0 1.125-.573 1.125-1.252v-.786zm7.7 2.882c-1.377 0-2.27-1.029-2.27-2.426 0-1.456.912-2.494 2.348-2.494 1.359 0 2.271.98 2.271 2.417.001 1.474-.94 2.503-2.349 2.503zm.039-4.154c-.756 0-1.241.708-1.241 1.698 0 .971.495 1.679 1.231 1.679.738 0 1.232-.757 1.232-1.699.002-.96-.483-1.678-1.222-1.678zm7.946 4.047h-1.049v-2.708c0-.834-.32-1.252-.951-1.252-.621 0-1.047.534-1.047 1.155v2.805h-1.049v-3.368c0-.417-.01-.864-.039-1.349h.922l.049.728h.029c.281-.504.854-.825 1.494-.825.99 0 1.641.757 1.641 1.989v2.825zm7.051-3.93h-1.153v2.29c0 .583.202.874.61.874.185 0 .34-.02.465-.049l.029.796c-.203.078-.475.117-.813.117-.826 0-1.32-.456-1.32-1.65V9.503h-.688v-.786h.688v-.864l1.029-.311v1.174h1.153v.787zm5.548 3.93h-1.047v-2.688c0-.844-.319-1.271-.951-1.271-.543 0-1.049.369-1.049 1.116v2.843h-1.047v-6.88h1.047v2.833h.021c.33-.514.808-.767 1.418-.767.998 0 1.608.776 1.608 2.009v2.805zm5.684-2.106h-3.145c.02.893.611 1.397 1.486 1.397.465 0 .893-.078 1.271-.223l.163.728c-.446.194-.971.291-1.582.291-1.475 0-2.348-.932-2.348-2.377 0-1.446.894-2.533 2.23-2.533 1.205 0 1.961.893 1.961 2.242a2.02 2.02 0 0 1-.036.475zm-.961-.747c0-.728-.367-1.242-1.037-1.242-.602 0-1.078.524-1.146 1.242h2.183z" fill="#FFF"/></g></svg><svg viewBox="0 0 135.716 40.019" id="download-gplay" xmlns="http://www.w3.org/2000/svg"><defs><linearGradient x1="31.8" y1="183.29" x2="15.017" y2="166.508" gradientUnits="userSpaceOnUse" gradientTransform="matrix(.8 0 0 -.8 0 161.6)" spreadMethod="pad" id="bi"><stop offset="0" stop-color="#00a0ff"/><stop offset=".007" stop-color="#00a1ff"/><stop offset=".26" stop-color="#00beff"/><stop offset=".512" stop-color="#00d2ff"/><stop offset=".76" stop-color="#00dfff"/><stop offset="1" stop-color="#00e3ff"/></linearGradient><linearGradient x1="43.834" y1="171.999" x2="19.638" y2="171.999" gradientUnits="userSpaceOnUse" gradientTransform="matrix(.8 0 0 -.8 0 161.6)" spreadMethod="pad" id="bj"><stop offset="0" stop-color="#ffe000"/><stop offset=".409" stop-color="#ffbd00"/><stop offset=".775" stop-color="orange"/><stop offset="1" stop-color="#ff9c00"/></linearGradient><linearGradient x1="34.827" y1="169.704" x2="12.069" y2="146.946" gradientUnits="userSpaceOnUse" gradientTransform="matrix(.8 0 0 -.8 0 161.6)" spreadMethod="pad" id="bk"><stop offset="0" stop-color="#ff3a44"/><stop offset="1" stop-color="#c31162"/></linearGradient><linearGradient x1="17.297" y1="191.824" x2="27.46" y2="181.661" gradientUnits="userSpaceOnUse" gradientTransform="matrix(.8 0 0 -.8 0 161.6)" spreadMethod="pad" id="bl"><stop offset="0" stop-color="#32a071"/><stop offset=".069" stop-color="#2da771"/><stop offset=".476" stop-color="#15cf74"/><stop offset=".801" stop-color="#06e775"/><stop offset="1" stop-color="#00f076"/></linearGradient><clipPath clipPathUnits="userSpaceOnUse" id="ba"><path d="M0 0h124v48H0V0z"/></clipPath><mask maskUnits="userSpaceOnUse" x="0" y="0" width="1" height="1" id="bm"><g clip-path="url(#ba)"><path d="M0 0h124v48H0V0z" fill-opacity=".2"/></g></mask><clipPath clipPathUnits="userSpaceOnUse" id="bn"><path d="M0 0h124v48H0V0z"/></clipPath><clipPath clipPathUnits="userSpaceOnUse" id="bb"><path d="M0 0h124v48H0V0z"/></clipPath><pattern patternTransform="matrix(1 0 0 -1 0 48)" patternUnits="userSpaceOnUse" x="0" y="0" width="124" height="48" id="bo"><g clip-path="url(#bb)"><path d="M29.625 20.695l-11.613-6.597c-.649-.371-1.231-.344-1.606-.008l-.058-.063.058-.058c.375-.336.957-.36 1.606.011l11.687 6.641-.074.074z"/></g></pattern><clipPath clipPathUnits="userSpaceOnUse" id="bc"><path d="M0 0h124v48H0V0z"/></clipPath><mask maskUnits="userSpaceOnUse" x="0" y="0" width="1" height="1" id="bp"><g clip-path="url(#bc)"><path d="M0 0h124v48H0V0z" fill-opacity=".12"/></g></mask><clipPath clipPathUnits="userSpaceOnUse" id="bq"><path d="M0 0h124v48H0V0z"/></clipPath><clipPath clipPathUnits="userSpaceOnUse" id="bd"><path d="M0 0h124v48H0V0z"/></clipPath><pattern patternTransform="matrix(1 0 0 -1 0 48)" patternUnits="userSpaceOnUse" x="0" y="0" width="124" height="48" id="br"><g clip-path="url(#bd)"><path d="M16.348 14.145c-.235.246-.371.628-.371 1.125v-.118c0-.496.136-.879.371-1.125l.058.063-.058.055z"/></g></pattern><clipPath clipPathUnits="userSpaceOnUse" id="be"><path d="M0 0h124v48H0V0z"/></clipPath><mask maskUnits="userSpaceOnUse" x="0" y="0" width="1" height="1" id="bs"><g clip-path="url(#be)"><path d="M0 0h124v48H0V0z" fill-opacity=".12"/></g></mask><clipPath clipPathUnits="userSpaceOnUse" id="bt"><path d="M0 0h124v48H0V0z"/></clipPath><clipPath clipPathUnits="userSpaceOnUse" id="bf"><path d="M0 0h124v48H0V0z"/></clipPath><pattern patternTransform="matrix(1 0 0 -1 0 48)" patternUnits="userSpaceOnUse" x="0" y="0" width="124" height="48" id="bu"><g clip-path="url(#bf)"><path d="M33.613 22.961l-3.988-2.266.074-.074 3.914 2.223c.559.316.836.734.836 1.156-.047-.379-.332-.75-.836-1.039z"/></g></pattern><clipPath clipPathUnits="userSpaceOnUse" id="bg"><path d="M0 0h124v48H0V0z"/></clipPath><mask maskUnits="userSpaceOnUse" x="0" y="0" width="1" height="1" id="bv"><g clip-path="url(#bg)"><path d="M0 0h124v48H0V0z" fill-opacity=".25"/></g></mask><clipPath clipPathUnits="userSpaceOnUse" id="bw"><path d="M0 0h124v48H0V0z"/></clipPath><clipPath clipPathUnits="userSpaceOnUse" id="bh"><path d="M0 0h124v48H0V0z"/></clipPath><pattern patternTransform="matrix(1 0 0 -1 0 48)" patternUnits="userSpaceOnUse" x="0" y="0" width="124" height="48" id="bx"><g clip-path="url(#bh)"><path d="M18.012 33.902l15.601-8.863c.508-.289.789-.66.836-1.039 0 .418-.277.836-.836 1.156L18.012 34.02c-1.117.632-2.035.105-2.035-1.176v-.114c0 1.278.918 1.805 2.035 1.172z" fill="#fff"/></g></pattern></defs><path d="M130.54 39.943H5.24c-2.755 0-5.012-2.23-5.012-4.954V5.267C.228 2.544 2.485.314 5.24.314h125.3c2.755 0 5.011 2.23 5.011 4.953V34.99c0 2.724-2.256 4.954-5.012 4.954z"/><path d="M130.54 1.108c2.32 0 4.208 1.866 4.208 4.16v29.721c0 2.294-1.888 4.16-4.209 4.16H5.24c-2.32 0-4.208-1.866-4.208-4.16V5.267c0-2.293 1.888-4.16 4.208-4.16h125.3m0-.793H5.24C2.485.314.228 2.544.228 5.267V34.99c0 2.724 2.257 4.954 5.012 4.954h125.3c2.755 0 5.011-2.23 5.011-4.954V5.267c0-2.723-2.256-4.953-5.012-4.953z" fill="#a6a6a6"/><path d="M45.934 16.195c0 .668-.2 1.203-.594 1.602-.453.473-1.043.711-1.766.711a2.426 2.426 0 0 1-1.765-.719c-.485-.484-.727-1.078-.727-1.789 0-.711.242-1.305.727-1.785a2.414 2.414 0 0 1 1.765-.723c.344 0 .672.071.985.203.312.133.566.313.75.535l-.418.422c-.321-.379-.758-.566-1.317-.566-.504 0-.941.176-1.312.531-.367.356-.551.817-.551 1.383 0 .566.184 1.031.551 1.387a1.85 1.85 0 0 0 1.312.531c.535 0 .985-.18 1.34-.535.234-.235.367-.559.402-.973h-1.742v-.578h2.324c.028.125.036.246.036.363zM49.621 14.191h-2.183v1.52h1.968v.578h-1.968v1.52h2.183v.589H46.82v-4.796h2.801v.589zM52.223 18.398h-.618v-4.207h-1.339v-.589h3.297v.589h-1.34v4.207zM55.949 18.398v-4.796h.617v4.796h-.617zM59.301 18.398h-.613v-4.207h-1.344v-.589h3.301v.589h-1.344v4.207zM66.887 17.781c-.473.485-1.059.727-1.758.727-.703 0-1.289-.242-1.762-.727-.472-.484-.707-1.078-.707-1.781 0-.703.235-1.297.707-1.781.473-.485 1.059-.727 1.762-.727.695 0 1.281.242 1.754.731.476.488.711 1.078.711 1.777 0 .703-.235 1.297-.707 1.781zm-3.063-.402c.356.359.789.539 1.305.539.512 0 .949-.18 1.301-.539.355-.359.535-.82.535-1.379s-.18-1.02-.535-1.379a1.756 1.756 0 0 0-1.301-.539c-.516 0-.949.18-1.305.539-.355.359-.535.82-.535 1.379s.18 1.02.535 1.379zM68.461 18.398v-4.796h.75l2.332 3.73h.027l-.027-.922v-2.808h.617v4.796h-.644l-2.442-3.914h-.027l.027.926v2.988h-.613z" fill="#fff" stroke="#fff" stroke-width=".16" stroke-miterlimit="10" transform="matrix(1.25299 0 0 1.23841 -9.796 -9.594)"/><path d="M68.526 21.865c-2.354 0-4.277 1.77-4.277 4.214 0 2.424 1.923 4.213 4.277 4.213 2.36 0 4.283-1.79 4.283-4.213 0-2.443-1.923-4.214-4.283-4.214zm0 6.768c-1.291 0-2.403-1.054-2.403-2.554 0-1.52 1.112-2.555 2.403-2.555 1.292 0 2.409 1.035 2.409 2.555 0 1.5-1.117 2.554-2.409 2.554zm-9.333-6.768c-2.36 0-4.278 1.77-4.278 4.214 0 2.424 1.918 4.213 4.278 4.213 2.358 0 4.278-1.79 4.278-4.213 0-2.443-1.92-4.214-4.278-4.214zm0 6.768c-1.293 0-2.408-1.054-2.408-2.554 0-1.52 1.115-2.555 2.408-2.555 1.292 0 2.403 1.035 2.403 2.555 0 1.5-1.111 2.554-2.403 2.554zm-11.107-5.477v1.791h4.327c-.127 1-.465 1.736-.984 2.249-.631.62-1.615 1.307-3.343 1.307a4.722 4.722 0 0 1-4.747-4.756 4.722 4.722 0 0 1 4.747-4.756c1.44 0 2.488.557 3.26 1.277l1.277-1.262c-1.08-1.02-2.52-1.804-4.537-1.804-3.65 0-6.72 2.936-6.72 6.545s3.07 6.545 6.72 6.545c1.974 0 3.456-.639 4.621-1.838 1.194-1.18 1.567-2.84 1.567-4.18 0-.416-.035-.798-.098-1.118h-6.09zm45.416 1.389c-.352-.943-1.438-2.68-3.651-2.68-2.193 0-4.018 1.707-4.018 4.214 0 2.36 1.806 4.213 4.228 4.213a4.238 4.238 0 0 0 3.554-1.868l-1.453-.957c-.485.701-1.146 1.166-2.1 1.166-.949 0-1.63-.43-2.065-1.277l5.702-2.332-.197-.48zm-5.814 1.403c-.049-1.625 1.277-2.457 2.227-2.457.744 0 1.376.367 1.586.894l-3.813 1.563zm-4.634 4.088h1.874V17.652h-1.874v12.384zm-3.07-7.233h-.063c-.421-.493-1.224-.938-2.242-.938-2.135 0-4.087 1.852-4.087 4.228 0 2.361 1.952 4.199 4.087 4.199 1.018 0 1.821-.45 2.242-.957h.063v.604c0 1.611-.871 2.477-2.276 2.477-1.145 0-1.855-.817-2.149-1.505l-1.63.673c.47 1.117 1.714 2.491 3.78 2.491 2.197 0 4.051-1.278 4.051-4.387V22.12h-1.776v.682zm-2.144 5.83c-1.292 0-2.373-1.07-2.373-2.54 0-1.485 1.081-2.569 2.373-2.569 1.273 0 2.277 1.084 2.277 2.569 0 1.47-1.004 2.54-2.277 2.54zm24.438-10.981h-4.483v12.384h1.87v-4.693h2.613c2.076 0 4.112-1.485 4.112-3.846 0-2.36-2.04-3.845-4.112-3.845zm.049 5.969h-2.663v-4.247h2.663a2.161 2.161 0 0 1 2.193 2.123c0 .958-.797 2.124-2.193 2.124zm11.556-1.78c-1.35 0-2.755.59-3.333 1.896l1.66.687c.356-.687 1.013-.91 1.707-.91.97 0 1.954.576 1.969 1.593v.13c-.339-.193-1.063-.48-1.954-.48-1.787 0-3.607.973-3.607 2.787 0 1.66 1.463 2.728 3.109 2.728 1.258 0 1.952-.56 2.388-1.213h.064v.957h1.805v-4.75c0-2.196-1.659-3.425-3.808-3.425zm-.225 6.787c-.612 0-1.464-.3-1.464-1.05 0-.958 1.063-1.326 1.983-1.326.823 0 1.209.18 1.709.416-.147 1.147-1.146 1.96-2.228 1.96zm10.611-6.516l-2.148 5.369h-.064l-2.222-5.369h-2.016l3.338 7.503-1.905 4.174h1.954l5.143-11.677h-2.08zm-16.851 7.924h1.874V17.652h-1.874v12.384z" fill="#fff"/><path d="M16.348 33.969c-.235-.246-.371-.629-.371-1.125V15.152c0-.496.136-.879.371-1.125l.058-.054 9.914 9.91v.234l-9.914 9.91-.058-.058z" fill="url(#bi)" transform="matrix(1.25299 0 0 -1.23841 -9.796 49.85)"/><path d="M29.621 20.578l-3.301 3.305v.234l3.305 3.305.074-.043 3.914-2.227c1.117-.632 1.117-1.672 0-2.308l-3.914-2.223-.078-.043z" fill="url(#bj)" transform="matrix(1.25299 0 0 -1.23841 -9.796 49.85)"/><path d="M29.699 20.621L26.32 24l-9.972-9.973c.371-.39.976-.437 1.664-.047l11.687 6.641" fill="url(#bk)" transform="matrix(1.25299 0 0 -1.23841 -9.796 49.85)"/><path d="M29.699 27.379L18.012 34.02c-.688.386-1.293.339-1.664-.051L26.32 24l3.379 3.379z" fill="url(#bl)" transform="matrix(1.25299 0 0 -1.23841 -9.796 49.85)"/><g mask="url(#bm)" transform="matrix(1.25299 0 0 -1.23841 -9.796 49.85)"><g clip-path="url(#bn)"><path d="M0 0h124v48H0V0z" fill="url(#bo)"/></g></g><g mask="url(#bp)" transform="matrix(1.25299 0 0 -1.23841 -9.796 49.85)"><g clip-path="url(#bq)"><path d="M0 0h124v48H0V0z" fill="url(#br)"/></g></g><g><g mask="url(#bs)" transform="matrix(1.25299 0 0 -1.23841 -9.796 49.85)"><g clip-path="url(#bt)"><path d="M0 0h124v48H0V0z" fill="url(#bu)"/></g></g></g><g><g mask="url(#bv)" transform="matrix(1.25299 0 0 -1.23841 -9.796 49.85)"><g clip-path="url(#bw)"><path d="M0 0h124v48H0V0z" fill="url(#bx)"/></g></g></g></svg><svg viewBox="0 0 48 48" id="icon-inst" xmlns="http://www.w3.org/2000/svg"><linearGradient gradientTransform="matrix(1 0 0 -1 0 50)" gradientUnits="userSpaceOnUse" id="ca" x1="24" x2="24" y1="8.717" y2="43.88"><stop offset=".097" stop-color="#ffd879"/><stop offset=".154" stop-color="#fccb76"/><stop offset=".258" stop-color="#f5aa6c"/><stop offset=".398" stop-color="#e9755e"/><stop offset=".449" stop-color="#e45f58"/><stop offset=".679" stop-color="#d22a9c"/><stop offset="1" stop-color="#6968df"/></linearGradient><circle cx="24" cy="24" r="15.344" fill="url(#ca)"/><path d="M24 27.715c-2.049 0-3.715-1.667-3.715-3.715S21.95 20.285 24 20.285 27.716 21.95 27.716 24 26.049 27.715 24 27.715zm0-6.43A2.718 2.718 0 0 0 21.285 24 2.719 2.719 0 0 0 24 26.715 2.72 2.72 0 0 0 26.716 24 2.718 2.718 0 0 0 24 21.285z" fill="#fff"/><circle cx="28.248" cy="19.891" r=".462" fill="#fff"/><path d="M27.198 31.264h-6.396a4.071 4.071 0 0 1-4.067-4.066v-6.396a4.071 4.071 0 0 1 4.067-4.067h6.396a4.071 4.071 0 0 1 4.067 4.067v6.396a4.071 4.071 0 0 1-4.067 4.066zm-6.396-13.529a3.07 3.07 0 0 0-3.067 3.067v6.396a3.07 3.07 0 0 0 3.067 3.066h6.396a3.07 3.07 0 0 0 3.067-3.066v-6.396a3.07 3.07 0 0 0-3.067-3.067h-6.396z" fill="#fff"/></svg><svg version="1.0" viewBox="0 0 32 32" id="icon-pin" xmlns="http://www.w3.org/2000/svg"><path d="M15.996.007C7.162.007 0 7.168 0 16.004c0 6.551 3.938 12.177 9.575 14.65-.045-1.118-.008-2.459.278-3.672l2.058-8.719s-.512-1.021-.512-2.529c0-2.369 1.376-4.14 3.087-4.14 1.454 0 2.157 1.091 2.157 2.4 0 1.462-.934 3.65-1.412 5.676-.401 1.696.852 3.08 2.522 3.08 3.031 0 5.072-3.891 5.072-8.504 0-3.505-2.361-6.128-6.655-6.128-4.852 0-7.874 3.617-7.874 7.659 0 1.394.411 2.377 1.054 3.138.297.35.338.489.229.891-.074.296-.25 1.003-.324 1.283-.107.407-.434.551-.801.4-2.235-.91-3.275-3.358-3.275-6.11 0-4.543 3.831-9.993 11.433-9.993 6.106 0 10.128 4.42 10.128 9.164 0 6.275-3.491 10.963-8.633 10.963-1.728 0-3.353-.934-3.907-1.992 0 0-.93 3.686-1.125 4.396-.34 1.231-1.004 2.466-1.61 3.427a15.94 15.94 0 0 0 4.531.656c8.834 0 15.995-7.16 15.995-15.996S24.83.007 15.996.007z" fill="#CA2028"/></svg><svg id="icon-slck" version="1.1" viewBox="0 0 512 512" xml:space="preserve" xmlns="http://www.w3.org/2000/svg"><style>.est15{fill:#ce1e5b}.est16{fill:#72c5cd}.est17{fill:#dfa22f}.est18{fill:#3cb187}.est19{fill:#248c73}.est20{fill:#392538}.est21{fill:#bb242a}</style><path class="est15" d="M501.8 274c-7.6-23.3-32.6-36.1-56-28.5L96.2 359.1c-23.3 7.6-36.1 32.6-28.5 56 7.6 23.3 32.6 36.1 56 28.5L473.3 330c23.3-7.6 36.1-32.7 28.5-56z"/><path class="est16" d="M443.5 97.7l-.2-.5c-7.6-23.3-32.6-36.1-56-28.5L38.7 182.1c-23.3 7.6-36.1 32.6-28.5 56l.2.5c7.6 23.3 32.6 36.1 56 28.5L415 153.8c23.3-7.7 36-32.7 28.5-56.1z"/><path class="est17" d="M443.6 388.3L329.9 38.7c-7.6-23.3-32.6-36.1-56-28.5-23.3 7.6-36.1 32.6-28.5 56L359 415.8c7.6 23.3 32.6 36.1 56 28.5 23.4-7.6 36.2-32.7 28.6-56z"/><path class="est18" d="M267 445.7L153.7 97.1c-7.6-23.3-32.6-36.1-56-28.5l-.5.2c-23.3 7.6-36.1 32.6-28.5 56L182 473.4c7.6 23.3 32.6 36.1 56 28.5l.5-.2c23.4-7.6 36.1-32.7 28.5-56z"/><path class="est19" transform="scale(-1) rotate(-18.006 -1239.806 877.625)" d="M94.4 151.7h89.4v89.4H94.4z"/><path class="est20" transform="rotate(-18.006 196.541 373.26)" d="M151.8 328.8h89.4v88.8h-89.4z"/><path class="est21" transform="rotate(-18.006 373.356 315.784)" d="M328.9 271.3h88.8v88.8h-88.8z"/></svg><svg viewBox="0 0 500 500" id="icon-twt" xmlns="http://www.w3.org/2000/svg"><g transform="translate(0 -552.362)"><rect height="500" rx="250" ry="250" width="500" y="552.362" fill="#55acee"/><path d="M309.85 672.312c-35.47.899-63.925 29.932-63.925 65.625 0 5.138.551 10.162 1.675 14.975-54.566-2.741-102.943-28.877-135.325-68.6-5.651 9.692-8.9 20.982-8.9 33.025 0 22.775 11.608 42.855 29.225 54.625a65.52 65.52 0 0 1-29.75-8.225c-.005.273 0 .57 0 .85 0 31.804 22.638 58.309 52.675 64.35a66.02 66.02 0 0 1-17.3 2.3c-4.235 0-8.342-.402-12.35-1.175 8.36 26.081 32.575 45.074 61.3 45.6-22.47 17.61-50.735 28.1-81.5 28.1-5.294 0-10.537-.29-15.675-.9 29.063 18.637 63.553 29.5 100.625 29.5 120.766 0 186.8-100.04 186.8-186.8 0-2.845-.052-5.706-.175-8.525 12.823-9.237 23.955-20.808 32.75-33.975a130.597 130.597 0 0 1-37.7 10.35c13.563-8.12 23.97-20.981 28.875-36.325a131.492 131.492 0 0 1-41.7 15.95c-11.972-12.758-29.041-20.725-47.925-20.725-.566 0-1.137-.014-1.7 0z" fill="#fff"/></g></svg><svg viewBox="0 0 60 60" id="icon-whp" xmlns="http://www.w3.org/2000/svg"><g fill="none" fill-rule="evenodd"><path d="M30 60c16.569 0 30-13.431 30-30C60 13.431 46.569 0 30 0 13.431 0 0 13.431 0 30c0 16.569 13.431 30 30 30z" fill="#57BB63"/><path d="M30.071 46.221a16.34 16.34 0 0 1-7.885-2.014l-9.032 2.87 2.944-8.685a16.022 16.022 0 0 1-2.34-8.358c0-8.94 7.303-16.188 16.314-16.188 9.009 0 16.313 7.247 16.313 16.188 0 8.94-7.304 16.187-16.314 16.187zm0-29.797c-7.563 0-13.715 6.105-13.715 13.61 0 2.977.97 5.735 2.612 7.979l-1.713 5.054 5.27-1.675a13.708 13.708 0 0 0 7.546 2.251c7.562 0 13.716-6.105 13.716-13.609s-6.154-13.61-13.716-13.61zm8.238 17.338c-.1-.165-.367-.265-.766-.463-.4-.199-2.367-1.159-2.733-1.29-.367-.133-.634-.2-.9.198-.266.397-1.033 1.29-1.267 1.555-.233.265-.466.298-.866.1-.4-.199-1.688-.618-3.216-1.97-1.188-1.051-1.991-2.35-2.224-2.747-.233-.397-.025-.612.175-.81.18-.177.4-.463.6-.694.2-.232.267-.397.4-.662s.067-.496-.033-.695c-.1-.199-.9-2.151-1.234-2.946-.333-.794-.665-.661-.9-.661-.233 0-.5-.034-.766-.034s-.7.1-1.066.497c-.367.397-1.4 1.357-1.4 3.31 0 1.952 1.433 3.838 1.633 4.102.2.265 2.766 4.402 6.83 5.99 4.067 1.589 4.067 1.059 4.8.993.733-.066 2.365-.96 2.7-1.886.332-.927.332-1.722.233-1.887z" fill="#FFF"/></g></svg><svg viewBox="0 0 67 67" id="icon-ytb" xmlns="http://www.w3.org/2000/svg"><path d="M43.527 41.34c-.278 0-.478.078-.6.244-.121.156-.18.424-.18.796v.896h1.543v-.896c0-.372-.062-.64-.185-.796-.116-.166-.313-.244-.578-.244zm-6.018-.031c.234 0 .417.076.544.23.123.154.185.383.185.682v4.584c0 .286-.053.487-.153.611-.1.127-.256.189-.47.189a.975.975 0 0 1-.421-.096 1.497 1.497 0 0 1-.415-.313v-5.531c.119-.122.239-.213.36-.271a.83.83 0 0 1 .37-.085zm5.239 3.349v1.672c0 .468.057.792.17.974.118.181.313.269.592.269.289 0 .491-.076.606-.229.114-.153.175-.489.175-1.013v-.405h1.795v.456c0 .911-.217 1.596-.657 2.059-.435.459-1.089.687-1.958.687-.781 0-1.398-.242-1.847-.731-.448-.486-.676-1.157-.676-2.014v-3.986c0-.768.249-1.398.742-1.882.493-.485 1.128-.727 1.911-.727.799 0 1.413.225 1.843.674.429.448.642 1.093.642 1.935v2.264h-3.338zm-3.125 3.837c-.271.336-.669.501-1.187.501-.343 0-.646-.062-.912-.192a2.238 2.238 0 0 1-.746-.601v.681h-1.764V36.852h1.764v3.875a2.68 2.68 0 0 1 .748-.617c.267-.142.534-.211.805-.211.554 0 .975.189 1.265.565.294.379.438.933.438 1.66v4.926c0 .628-.137 1.109-.411 1.445zm-7.665.389v-.976c-.325.361-.658.636-1.009.822a2.098 2.098 0 0 1-1.014.282c-.405 0-.705-.129-.913-.396-.201-.266-.305-.658-.305-1.189v-7.422h1.744v6.809c0 .211.037.362.107.457.077.095.196.141.358.141.128 0 .292-.062.488-.188a2.48 2.48 0 0 0 .542-.475v-6.744H33.7v8.878h-1.742zM25.916 38.6v10.284h-1.968V38.6h-2.034v-1.748h6.036V38.6h-2.034zm8.078-5.622c0-.001 12.08.018 13.514 1.45 1.439 1.435 1.455 8.514 1.455 8.555 0 0-.012 7.117-1.455 8.556C46.074 52.969 33.994 53 33.994 53s-12.079-.031-13.516-1.462c-1.438-1.435-1.441-8.502-1.441-8.556 0-.041.004-7.12 1.441-8.555 1.438-1.431 13.516-1.45 13.516-1.449zm9.526-3.723h-1.966v-1.08c-.358.397-.736.703-1.13.909-.392.208-.771.312-1.14.312-.458 0-.797-.146-1.027-.437-.229-.291-.345-.727-.345-1.311v-8.172h1.962v7.497c0 .231.045.399.127.502.08.104.216.156.399.156.143 0 .327-.069.548-.206.22-.137.423-.312.605-.527v-7.422h1.966v9.779zm-10.673-1.667c.139.147.339.219.6.219.266 0 .476-.075.634-.223.157-.152.235-.358.235-.618v-5.327a.638.638 0 0 0-.241-.519c-.16-.131-.37-.196-.628-.196-.241 0-.435.065-.586.196a.665.665 0 0 0-.225.519v5.327c0 .267.072.473.211.622zm-1.439-7.685c.528-.449 1.241-.674 2.132-.674.812 0 1.48.237 2.001.711.517.473.777 1.083.777 1.828v5.051c0 .836-.255 1.491-.762 1.968-.513.476-1.212.714-2.106.714-.858 0-1.547-.246-2.064-.736-.513-.492-.772-1.153-.772-1.984v-5.068c-.001-.759.263-1.362.794-1.81zM25.262 16h-2.229l2.634 8.003v5.252h2.213v-5.5L30.454 16h-2.25l-1.366 5.298h-.139L25.262 16zM34 64C17.432 64 4 50.568 4 34 4 17.431 17.432 4 34 4s30 13.431 30 30c0 16.568-13.432 30-30 30z" fill-rule="evenodd" clip-rule="evenodd" fill="#cf3427"/></svg></svg>