<?xml version="1.0" encoding="UTF-8"?>
<svg width="856px" height="1706px" viewBox="0 0 856 1706" version="1.1" xmlns="http://www.w3.org/2000/svg" xmlns:xlink="http://www.w3.org/1999/xlink">
    <!-- Generator: Sketch 53.2 (72643) - https://sketchapp.com -->
    <title>iphone-white</title>
    <desc>Created with Sketch.</desc>
    <defs>
        <linearGradient x1="37.4869647%" y1="0%" x2="62.5130353%" y2="100%" id="linearGradient-1">
            <stop stop-color="#FFFFFF" offset="0%"></stop>
            <stop stop-color="#FEFEFE" offset="100%"></stop>
        </linearGradient>
        <linearGradient x1="38.2321171%" y1="0%" x2="61.7678829%" y2="100%" id="linearGradient-2">
            <stop stop-color="#FFFFFF" offset="0%"></stop>
            <stop stop-color="#FEFEFE" offset="100%"></stop>
        </linearGradient>
        <circle id="path-3" cx="12" cy="12" r="12"></circle>
        <filter x="-25.0%" y="-25.0%" width="150.0%" height="150.0%" filterUnits="objectBoundingBox" id="filter-4">
            <feMorphology radius="0.5" operator="dilate" in="SourceAlpha" result="shadowSpreadOuter1"></feMorphology>
            <feOffset dx="0" dy="0" in="shadowSpreadOuter1" result="shadowOffsetOuter1"></feOffset>
            <feGaussianBlur stdDeviation="1.5" in="shadowOffsetOuter1" result="shadowBlurOuter1"></feGaussianBlur>
            <feColorMatrix values="0 0 0 0 0.490619685   0 0 0 0 0.490619685   0 0 0 0 0.490619685  0 0 0 0.25 0" type="matrix" in="shadowBlurOuter1"></feColorMatrix>
        </filter>
        <filter x="-29.2%" y="-29.2%" width="158.3%" height="158.3%" filterUnits="objectBoundingBox" id="filter-5">
            <feGaussianBlur stdDeviation="2" in="SourceAlpha" result="shadowBlurInner1"></feGaussianBlur>
            <feOffset dx="2" dy="2" in="shadowBlurInner1" result="shadowOffsetInner1"></feOffset>
            <feComposite in="shadowOffsetInner1" in2="SourceAlpha" operator="arithmetic" k2="-1" k3="1" result="shadowInnerInner1"></feComposite>
            <feColorMatrix values="0 0 0 0 0   0 0 0 0 0   0 0 0 0 0  0 0 0 0.344061368 0" type="matrix" in="shadowInnerInner1"></feColorMatrix>
        </filter>
        <circle id="path-6" cx="12" cy="12" r="9"></circle>
        <filter x="-33.3%" y="-16.7%" width="166.7%" height="166.7%" filterUnits="objectBoundingBox" id="filter-7">
            <feOffset dx="0" dy="3" in="SourceAlpha" result="shadowOffsetOuter1"></feOffset>
            <feGaussianBlur stdDeviation="1.5" in="shadowOffsetOuter1" result="shadowBlurOuter1"></feGaussianBlur>
            <feColorMatrix values="0 0 0 0 0.490619685   0 0 0 0 0.490619685   0 0 0 0 0.490619685  0 0 0 0.428838315 0" type="matrix" in="shadowBlurOuter1"></feColorMatrix>
        </filter>
        <filter x="-36.1%" y="-19.4%" width="172.2%" height="172.2%" filterUnits="objectBoundingBox" id="filter-8">
            <feGaussianBlur stdDeviation="2.5" in="SourceAlpha" result="shadowBlurInner1"></feGaussianBlur>
            <feOffset dx="-2" dy="-2" in="shadowBlurInner1" result="shadowOffsetInner1"></feOffset>
            <feComposite in="shadowOffsetInner1" in2="SourceAlpha" operator="arithmetic" k2="-1" k3="1" result="shadowInnerInner1"></feComposite>
            <feColorMatrix values="0 0 0 0 0   0 0 0 0 0   0 0 0 0 0  0 0 0 0.344061368 0" type="matrix" in="shadowInnerInner1"></feColorMatrix>
        </filter>
        <rect id="path-9" x="0" y="7" width="100" height="10" rx="5"></rect>
        <filter x="-6.5%" y="-65.0%" width="113.0%" height="230.0%" filterUnits="objectBoundingBox" id="filter-10">
            <feMorphology radius="1" operator="dilate" in="SourceAlpha" result="shadowSpreadOuter1"></feMorphology>
            <feOffset dx="0" dy="0" in="shadowSpreadOuter1" result="shadowOffsetOuter1"></feOffset>
            <feGaussianBlur stdDeviation="1.5" in="shadowOffsetOuter1" result="shadowBlurOuter1"></feGaussianBlur>
            <feComposite in="shadowBlurOuter1" in2="SourceAlpha" operator="out" result="shadowBlurOuter1"></feComposite>
            <feColorMatrix values="0 0 0 0 0.490619685   0 0 0 0 0.490619685   0 0 0 0 0.490619685  0 0 0 0.25 0" type="matrix" in="shadowBlurOuter1"></feColorMatrix>
        </filter>
        <filter x="-7.5%" y="-75.0%" width="115.0%" height="250.0%" filterUnits="objectBoundingBox" id="filter-11">
            <feGaussianBlur stdDeviation="2" in="SourceAlpha" result="shadowBlurInner1"></feGaussianBlur>
            <feOffset dx="2" dy="2" in="shadowBlurInner1" result="shadowOffsetInner1"></feOffset>
            <feComposite in="shadowOffsetInner1" in2="SourceAlpha" operator="arithmetic" k2="-1" k3="1" result="shadowInnerInner1"></feComposite>
            <feColorMatrix values="0 0 0 0 0   0 0 0 0 0   0 0 0 0 0  0 0 0 0.344061368 0" type="matrix" in="shadowInnerInner1"></feColorMatrix>
        </filter>
    </defs>
    <g id="📱CHANGE-HERE" stroke="none" stroke-width="1" fill="none" fill-rule="evenodd">
        <g id="iphone-white" transform="translate(3.000000, 3.000000)">
            <path d="M20.5980611,636.739596 L7,636.739596 C2.3608081,636.739596 -1.4,632.978788 -1.4,628.339596 L-1.4,519.95446 C-1.4,515.315268 2.3608081,511.55446 7,511.55446 L20.5980611,511.55446 L20.5980611,481.250284 L7,481.250284 C2.3608081,481.250284 -1.4,477.489476 -1.4,472.850284 L-1.4,364.465148 C-1.4,359.825956 2.3608081,356.065148 7,356.065148 L20.5980611,356.065148 L20.5980611,299.678893 L7,299.678893 C2.3608081,299.678893 -1.4,295.918085 -1.4,291.278893 L-1.4,237.064227 C-1.4,232.425035 2.3608081,228.664227 7,228.664227 L20.5980611,228.664227 L20.5980611,128.839647 C20.5980611,87.9874647 24.092144,69.8936186 34.1201578,51.142863 C42.9659922,34.6025908 55.9552654,21.6133176 72.4955376,12.7674832 C91.2462932,2.7394694 109.340139,-0.754613463 150.192321,-0.754613463 L721.922511,-0.754613463 C762.774693,-0.754613463 780.868539,2.7394694 799.619294,12.7674832 C816.159567,21.6133176 829.14884,34.6025908 837.994674,51.142863 C848.022688,69.8936186 851.516771,87.9874647 851.516771,128.839647 L851.516771,1571.79884 C851.516771,1612.65102 848.022688,1630.74487 837.994674,1649.49562 C829.14884,1666.03589 816.159567,1679.02517 799.619294,1687.871 C780.868539,1697.89901 762.774693,1701.3931 721.922511,1701.3931 L150.192321,1701.3931 C109.340139,1701.3931 91.2462932,1697.89901 72.4955376,1687.871 C55.9552654,1679.02517 42.9659922,1666.03589 34.1201578,1649.49562 C24.092144,1630.74487 20.5980611,1612.65102 20.5980611,1571.79884 L20.5980611,636.739596 Z M59.408,36.4092365 L59.408,1658.59076 L810.592,1658.59076 L810.592,36.4092365 L59.408,36.4092365 Z" id="Combined-Shape" stroke-opacity="0.04" stroke="#000000" stroke-width="2.8" fill="url(#linearGradient-1)"></path>
            <path d="M228.027308,36 L145,36 C98.0557963,36 60,74.0557963 60,121 L60,1575 C60,1621.9442 98.0557963,1660 145,1660 L725,1660 C771.944204,1660 810,1621.9442 810,1575 L810,121 C810,74.0557963 771.944204,36 725,36 L641.972692,36 C641.990818,36.3310304 642,36.6644429 642,37 L642,74 C642,95.5391052 624.539105,113 603,113 L267,113 C245.460895,113 228,95.5391052 228,74 L228,37 C228,36.6644429 228.009182,36.3310304 228.027308,36 Z M155.19426,7 L714.80574,7 C759.381677,7 775.545989,11.6412806 791.842285,20.3566352 C808.138581,29.0719898 820.92801,41.8614185 829.643365,58.1577148 C838.358719,74.4540111 843,90.618323 843,135.19426 L843,1560.80574 C843,1605.38168 838.358719,1621.54599 829.643365,1637.84229 C820.92801,1654.13858 808.138581,1666.92801 791.842285,1675.64336 C775.545989,1684.35872 759.381677,1689 714.80574,1689 L155.19426,1689 C110.618323,1689 94.4540111,1684.35872 78.1577148,1675.64336 C61.8614185,1666.92801 49.0719898,1654.13858 40.3566352,1637.84229 C31.6412806,1621.54599 27,1605.38168 27,1560.80574 L27,135.19426 C27,90.618323 31.6412806,74.4540111 40.3566352,58.1577148 C49.0719898,41.8614185 61.8614185,29.0719898 78.1577148,20.3566352 C94.4540111,11.6412806 110.618323,7 155.19426,7 Z" id="screen-frame" stroke-opacity="0.1" stroke="#000000" stroke-width="4.80000019" fill="url(#linearGradient-2)"></path>
            <g id="sensor-camera" transform="translate(380.000000, 54.000000)">
                <g id="Group" transform="translate(150.000000, 0.000000)">
                    <g id="Oval">
                        <use fill="black" fill-opacity="1" filter="url(#filter-4)" xlink:href="#path-3"></use>
                        <use fill="#9092A5" fill-rule="evenodd" xlink:href="#path-3"></use>
                        <use fill="black" fill-opacity="1" filter="url(#filter-5)" xlink:href="#path-3"></use>
                    </g>
                    <g id="Oval">
                        <use fill="black" fill-opacity="1" filter="url(#filter-7)" xlink:href="#path-6"></use>
                        <use fill="#9092A5" fill-rule="evenodd" xlink:href="#path-6"></use>
                        <use fill="black" fill-opacity="1" filter="url(#filter-8)" xlink:href="#path-6"></use>
                    </g>
                </g>
                <g id="Rectangle-2">
                    <use fill="black" fill-opacity="1" filter="url(#filter-10)" xlink:href="#path-9"></use>
                    <use fill="#9092A5" fill-rule="evenodd" xlink:href="#path-9"></use>
                    <use fill="black" fill-opacity="1" filter="url(#filter-11)" xlink:href="#path-9"></use>
                    <use stroke-opacity="0.568331069" stroke="#5D5959" stroke-width="1" xlink:href="#path-9"></use>
                </g>
            </g>
        </g>
    </g>
</svg>