<?xml version="1.0" ?><!DOCTYPE svg  PUBLIC '-//W3C//DTD SVG 1.0//EN'  'http://www.w3.org/TR/2001/REC-SVG-20010904/DTD/svg10.dtd'><svg viewBox="0 0 512 512" xmlns="http://www.w3.org/2000/svg" xmlns:xlink="http://www.w3.org/1999/xlink"><style>:root>svg{display:none}:root>svg:target{display:block}</style><svg viewBox="0 0 48 48" id="icon-inst" xmlns="http://www.w3.org/2000/svg"><linearGradient gradientTransform="matrix(1 0 0 -1 0 50)" gradientUnits="userSpaceOnUse" id="aa" x1="24" x2="24" y1="8.717" y2="43.88"><stop offset=".097" stop-color="#ffd879"/><stop offset=".154" stop-color="#fccb76"/><stop offset=".258" stop-color="#f5aa6c"/><stop offset=".398" stop-color="#e9755e"/><stop offset=".449" stop-color="#e45f58"/><stop offset=".679" stop-color="#d22a9c"/><stop offset="1" stop-color="#6968df"/></linearGradient><circle cx="24" cy="24" r="15.344" fill="url(#aa)"/><path d="M24 27.715c-2.049 0-3.715-1.667-3.715-3.715S21.95 20.285 24 20.285 27.716 21.95 27.716 24 26.049 27.715 24 27.715zm0-6.43A2.718 2.718 0 0 0 21.285 24 2.719 2.719 0 0 0 24 26.715 2.72 2.72 0 0 0 26.716 24 2.718 2.718 0 0 0 24 21.285z" fill="#fff"/><circle cx="28.248" cy="19.891" r=".462" fill="#fff"/><path d="M27.198 31.264h-6.396a4.071 4.071 0 0 1-4.067-4.066v-6.396a4.071 4.071 0 0 1 4.067-4.067h6.396a4.071 4.071 0 0 1 4.067 4.067v6.396a4.071 4.071 0 0 1-4.067 4.066zm-6.396-13.529a3.07 3.07 0 0 0-3.067 3.067v6.396a3.07 3.07 0 0 0 3.067 3.066h6.396a3.07 3.07 0 0 0 3.067-3.066v-6.396a3.07 3.07 0 0 0-3.067-3.067h-6.396z" fill="#fff"/></svg><svg version="1.0" viewBox="0 0 32 32" id="icon-pin" xmlns="http://www.w3.org/2000/svg"><path d="M15.996.007C7.162.007 0 7.168 0 16.004c0 6.551 3.938 12.177 9.575 14.65-.045-1.118-.008-2.459.278-3.672l2.058-8.719s-.512-1.021-.512-2.529c0-2.369 1.376-4.14 3.087-4.14 1.454 0 2.157 1.091 2.157 2.4 0 1.462-.934 3.65-1.412 5.676-.401 1.696.852 3.08 2.522 3.08 3.031 0 5.072-3.891 5.072-8.504 0-3.505-2.361-6.128-6.655-6.128-4.852 0-7.874 3.617-7.874 7.659 0 1.394.411 2.377 1.054 3.138.297.35.338.489.229.891-.074.296-.25 1.003-.324 1.283-.107.407-.434.551-.801.4-2.235-.91-3.275-3.358-3.275-6.11 0-4.543 3.831-9.993 11.433-9.993 6.106 0 10.128 4.42 10.128 9.164 0 6.275-3.491 10.963-8.633 10.963-1.728 0-3.353-.934-3.907-1.992 0 0-.93 3.686-1.125 4.396-.34 1.231-1.004 2.466-1.61 3.427a15.94 15.94 0 0 0 4.531.656c8.834 0 15.995-7.16 15.995-15.996S24.83.007 15.996.007z" fill="#CA2028"/></svg><svg id="icon-slck" version="1.1" viewBox="0 0 512 512" xml:space="preserve" xmlns="http://www.w3.org/2000/svg"><style>.cst15{fill:#ce1e5b}.cst16{fill:#72c5cd}.cst17{fill:#dfa22f}.cst18{fill:#3cb187}.cst19{fill:#248c73}.cst20{fill:#392538}.cst21{fill:#bb242a}</style><path class="cst15" d="M501.8 274c-7.6-23.3-32.6-36.1-56-28.5L96.2 359.1c-23.3 7.6-36.1 32.6-28.5 56 7.6 23.3 32.6 36.1 56 28.5L473.3 330c23.3-7.6 36.1-32.7 28.5-56z"/><path class="cst16" d="M443.5 97.7l-.2-.5c-7.6-23.3-32.6-36.1-56-28.5L38.7 182.1c-23.3 7.6-36.1 32.6-28.5 56l.2.5c7.6 23.3 32.6 36.1 56 28.5L415 153.8c23.3-7.7 36-32.7 28.5-56.1z"/><path class="cst17" d="M443.6 388.3L329.9 38.7c-7.6-23.3-32.6-36.1-56-28.5-23.3 7.6-36.1 32.6-28.5 56L359 415.8c7.6 23.3 32.6 36.1 56 28.5 23.4-7.6 36.2-32.7 28.6-56z"/><path class="cst18" d="M267 445.7L153.7 97.1c-7.6-23.3-32.6-36.1-56-28.5l-.5.2c-23.3 7.6-36.1 32.6-28.5 56L182 473.4c7.6 23.3 32.6 36.1 56 28.5l.5-.2c23.4-7.6 36.1-32.7 28.5-56z"/><path class="cst19" transform="scale(-1) rotate(-18.006 -1239.806 877.625)" d="M94.4 151.7h89.4v89.4H94.4z"/><path class="cst20" transform="rotate(-18.006 196.541 373.26)" d="M151.8 328.8h89.4v88.8h-89.4z"/><path class="cst21" transform="rotate(-18.006 373.356 315.784)" d="M328.9 271.3h88.8v88.8h-88.8z"/></svg><svg viewBox="0 0 500 500" id="icon-twt" xmlns="http://www.w3.org/2000/svg"><g transform="translate(0 -552.362)"><rect height="500" rx="250" ry="250" width="500" y="552.362" fill="#55acee"/><path d="M309.85 672.312c-35.47.899-63.925 29.932-63.925 65.625 0 5.138.551 10.162 1.675 14.975-54.566-2.741-102.943-28.877-135.325-68.6-5.651 9.692-8.9 20.982-8.9 33.025 0 22.775 11.608 42.855 29.225 54.625a65.52 65.52 0 0 1-29.75-8.225c-.005.273 0 .57 0 .85 0 31.804 22.638 58.309 52.675 64.35a66.02 66.02 0 0 1-17.3 2.3c-4.235 0-8.342-.402-12.35-1.175 8.36 26.081 32.575 45.074 61.3 45.6-22.47 17.61-50.735 28.1-81.5 28.1-5.294 0-10.537-.29-15.675-.9 29.063 18.637 63.553 29.5 100.625 29.5 120.766 0 186.8-100.04 186.8-186.8 0-2.845-.052-5.706-.175-8.525 12.823-9.237 23.955-20.808 32.75-33.975a130.597 130.597 0 0 1-37.7 10.35c13.563-8.12 23.97-20.981 28.875-36.325a131.492 131.492 0 0 1-41.7 15.95c-11.972-12.758-29.041-20.725-47.925-20.725-.566 0-1.137-.014-1.7 0z" fill="#fff"/></g></svg><svg viewBox="0 0 60 60" id="icon-whp" xmlns="http://www.w3.org/2000/svg"><g fill="none" fill-rule="evenodd"><path d="M30 60c16.569 0 30-13.431 30-30C60 13.431 46.569 0 30 0 13.431 0 0 13.431 0 30c0 16.569 13.431 30 30 30z" fill="#57BB63"/><path d="M30.071 46.221a16.34 16.34 0 0 1-7.885-2.014l-9.032 2.87 2.944-8.685a16.022 16.022 0 0 1-2.34-8.358c0-8.94 7.303-16.188 16.314-16.188 9.009 0 16.313 7.247 16.313 16.188 0 8.94-7.304 16.187-16.314 16.187zm0-29.797c-7.563 0-13.715 6.105-13.715 13.61 0 2.977.97 5.735 2.612 7.979l-1.713 5.054 5.27-1.675a13.708 13.708 0 0 0 7.546 2.251c7.562 0 13.716-6.105 13.716-13.609s-6.154-13.61-13.716-13.61zm8.238 17.338c-.1-.165-.367-.265-.766-.463-.4-.199-2.367-1.159-2.733-1.29-.367-.133-.634-.2-.9.198-.266.397-1.033 1.29-1.267 1.555-.233.265-.466.298-.866.1-.4-.199-1.688-.618-3.216-1.97-1.188-1.051-1.991-2.35-2.224-2.747-.233-.397-.025-.612.175-.81.18-.177.4-.463.6-.694.2-.232.267-.397.4-.662s.067-.496-.033-.695c-.1-.199-.9-2.151-1.234-2.946-.333-.794-.665-.661-.9-.661-.233 0-.5-.034-.766-.034s-.7.1-1.066.497c-.367.397-1.4 1.357-1.4 3.31 0 1.952 1.433 3.838 1.633 4.102.2.265 2.766 4.402 6.83 5.99 4.067 1.589 4.067 1.059 4.8.993.733-.066 2.365-.96 2.7-1.886.332-.927.332-1.722.233-1.887z" fill="#FFF"/></g></svg><svg viewBox="0 0 67 67" id="icon-ytb" xmlns="http://www.w3.org/2000/svg"><path d="M43.527 41.34c-.278 0-.478.078-.6.244-.121.156-.18.424-.18.796v.896h1.543v-.896c0-.372-.062-.64-.185-.796-.116-.166-.313-.244-.578-.244zm-6.018-.031c.234 0 .417.076.544.23.123.154.185.383.185.682v4.584c0 .286-.053.487-.153.611-.1.127-.256.189-.47.189a.975.975 0 0 1-.421-.096 1.497 1.497 0 0 1-.415-.313v-5.531c.119-.122.239-.213.36-.271a.83.83 0 0 1 .37-.085zm5.239 3.349v1.672c0 .468.057.792.17.974.118.181.313.269.592.269.289 0 .491-.076.606-.229.114-.153.175-.489.175-1.013v-.405h1.795v.456c0 .911-.217 1.596-.657 2.059-.435.459-1.089.687-1.958.687-.781 0-1.398-.242-1.847-.731-.448-.486-.676-1.157-.676-2.014v-3.986c0-.768.249-1.398.742-1.882.493-.485 1.128-.727 1.911-.727.799 0 1.413.225 1.843.674.429.448.642 1.093.642 1.935v2.264h-3.338zm-3.125 3.837c-.271.336-.669.501-1.187.501-.343 0-.646-.062-.912-.192a2.238 2.238 0 0 1-.746-.601v.681h-1.764V36.852h1.764v3.875a2.68 2.68 0 0 1 .748-.617c.267-.142.534-.211.805-.211.554 0 .975.189 1.265.565.294.379.438.933.438 1.66v4.926c0 .628-.137 1.109-.411 1.445zm-7.665.389v-.976c-.325.361-.658.636-1.009.822a2.098 2.098 0 0 1-1.014.282c-.405 0-.705-.129-.913-.396-.201-.266-.305-.658-.305-1.189v-7.422h1.744v6.809c0 .211.037.362.107.457.077.095.196.141.358.141.128 0 .292-.062.488-.188a2.48 2.48 0 0 0 .542-.475v-6.744H33.7v8.878h-1.742zM25.916 38.6v10.284h-1.968V38.6h-2.034v-1.748h6.036V38.6h-2.034zm8.078-5.622c0-.001 12.08.018 13.514 1.45 1.439 1.435 1.455 8.514 1.455 8.555 0 0-.012 7.117-1.455 8.556C46.074 52.969 33.994 53 33.994 53s-12.079-.031-13.516-1.462c-1.438-1.435-1.441-8.502-1.441-8.556 0-.041.004-7.12 1.441-8.555 1.438-1.431 13.516-1.45 13.516-1.449zm9.526-3.723h-1.966v-1.08c-.358.397-.736.703-1.13.909-.392.208-.771.312-1.14.312-.458 0-.797-.146-1.027-.437-.229-.291-.345-.727-.345-1.311v-8.172h1.962v7.497c0 .231.045.399.127.502.08.104.216.156.399.156.143 0 .327-.069.548-.206.22-.137.423-.312.605-.527v-7.422h1.966v9.779zm-10.673-1.667c.139.147.339.219.6.219.266 0 .476-.075.634-.223.157-.152.235-.358.235-.618v-5.327a.638.638 0 0 0-.241-.519c-.16-.131-.37-.196-.628-.196-.241 0-.435.065-.586.196a.665.665 0 0 0-.225.519v5.327c0 .267.072.473.211.622zm-1.439-7.685c.528-.449 1.241-.674 2.132-.674.812 0 1.48.237 2.001.711.517.473.777 1.083.777 1.828v5.051c0 .836-.255 1.491-.762 1.968-.513.476-1.212.714-2.106.714-.858 0-1.547-.246-2.064-.736-.513-.492-.772-1.153-.772-1.984v-5.068c-.001-.759.263-1.362.794-1.81zM25.262 16h-2.229l2.634 8.003v5.252h2.213v-5.5L30.454 16h-2.25l-1.366 5.298h-.139L25.262 16zM34 64C17.432 64 4 50.568 4 34 4 17.431 17.432 4 34 4s30 13.431 30 30c0 16.568-13.432 30-30 30z" fill-rule="evenodd" clip-rule="evenodd" fill="#cf3427"/></svg></svg>